<svg width="512" height="512" fill="none" xmlns="http://www.w3.org/2000/svg"><path d="M397.78 316H192.65A14.999 14.999 0 0 1 178 304.33l-34.54-150.48a15.008 15.008 0 0 1 2.885-12.704 14.996 14.996 0 0 1 11.735-5.656h274.27a14.99 14.99 0 0 1 11.756 5.644A15.008 15.008 0 0 1 447 153.85l-34.6 150.48A14.996 14.996 0 0 1 397.78 316Zm-193.19-30h181.25l27.67-120.48h-236.6L204.59 286ZM222 450a57.479 57.479 0 0 1-11.214-113.856 57.481 57.481 0 0 1 68.694 56.376A57.54 57.54 0 0 1 222 450Zm0-84.95a27.48 27.48 0 1 0 27.48 27.47A27.5 27.5 0 0 0 222 365.05ZM368.42 450a57.479 57.479 0 0 1-11.214-113.856A57.481 57.481 0 0 1 425.9 392.52 57.54 57.54 0 0 1 368.42 450Zm0-84.95a27.48 27.48 0 1 0 27.48 27.47 27.5 27.5 0 0 0-27.48-27.47Z" fill="#fff"/><path d="M158.08 165.49a15 15 0 0 1-14.23-10.26L118.14 78H70.7a15 15 0 1 1 0-30H129a14.999 14.999 0 0 1 14.23 10.26l29.13 87.49a15.008 15.008 0 0 1-2.063 13.512 15.013 15.013 0 0 1-12.167 6.228h-.05Z" fill="#fff"/></svg>