<svg width="512" height="512" viewBox="0 0 512 512" fill="none" xmlns="http://www.w3.org/2000/svg">
<path d="M397.78 316H192.65C189.246 316.006 185.942 314.853 183.28 312.733C180.617 310.612 178.756 307.649 178 304.33L143.46 153.85C142.955 151.652 142.952 149.368 143.451 147.169C143.951 144.969 144.94 142.911 146.345 141.146C147.75 139.382 149.534 137.957 151.566 136.978C153.598 135.998 155.825 135.49 158.08 135.49H432.35C434.608 135.485 436.838 135.99 438.874 136.968C440.909 137.945 442.698 139.369 444.106 141.134C445.514 142.899 446.506 144.96 447.007 147.161C447.508 149.363 447.506 151.649 447 153.85L412.4 304.33C411.646 307.644 409.788 310.603 407.132 312.723C404.476 314.843 401.179 315.999 397.78 316V316ZM204.59 286H385.84L413.51 165.52H176.91L204.59 286Z" fill="white"/>
<path d="M222 450C210.632 450 199.518 446.629 190.066 440.313C180.613 433.997 173.246 425.02 168.895 414.517C164.545 404.014 163.407 392.456 165.625 381.306C167.842 370.156 173.317 359.914 181.356 351.875C189.394 343.837 199.636 338.362 210.786 336.144C221.936 333.927 233.494 335.065 243.997 339.415C254.5 343.766 263.477 351.133 269.793 360.586C276.109 370.038 279.48 381.152 279.48 392.52C279.464 407.76 273.403 422.371 262.627 433.147C251.851 443.923 237.24 449.984 222 450V450ZM222 365.05C216.565 365.05 211.251 366.662 206.732 369.682C202.213 372.702 198.69 376.994 196.611 382.016C194.531 387.038 193.988 392.564 195.049 397.895C196.11 403.226 198.728 408.122 202.572 411.965C206.416 415.808 211.314 418.424 216.645 419.483C221.976 420.542 227.502 419.997 232.523 417.915C237.544 415.834 241.835 412.31 244.854 407.79C247.872 403.269 249.482 397.955 249.48 392.52C249.472 385.235 246.574 378.251 241.422 373.101C236.27 367.951 229.285 365.055 222 365.05V365.05Z" fill="white"/>
<path d="M368.42 450C357.052 450 345.938 446.629 336.486 440.313C327.033 433.997 319.666 425.02 315.315 414.517C310.965 404.014 309.827 392.456 312.044 381.306C314.262 370.156 319.737 359.914 327.775 351.875C335.814 343.837 346.056 338.362 357.206 336.144C368.356 333.927 379.914 335.065 390.417 339.415C400.92 343.766 409.897 351.133 416.213 360.586C422.529 370.038 425.9 381.152 425.9 392.52C425.884 407.76 419.823 422.371 409.047 433.147C398.271 443.923 383.66 449.984 368.42 450V450ZM368.42 365.05C362.985 365.05 357.671 366.662 353.152 369.682C348.633 372.702 345.11 376.994 343.031 382.016C340.951 387.038 340.408 392.564 341.469 397.895C342.53 403.226 345.148 408.122 348.992 411.965C352.836 415.808 357.734 418.424 363.065 419.483C368.396 420.542 373.922 419.997 378.943 417.915C383.964 415.834 388.255 412.31 391.274 407.79C394.292 403.269 395.902 397.955 395.9 392.52C395.892 385.235 392.994 378.251 387.842 373.101C382.69 367.951 375.705 365.055 368.42 365.05Z" fill="white"/>
<path d="M158.08 165.49C154.931 165.49 151.863 164.499 149.309 162.657C146.755 160.816 144.845 158.217 143.85 155.23L118.14 78H70.7C66.7218 78 62.9065 76.4197 60.0934 73.6066C57.2804 70.7936 55.7 66.9782 55.7 63C55.7 59.0218 57.2804 55.2064 60.0934 52.3934C62.9065 49.5804 66.7218 48 70.7 48H129C132.149 48.0003 135.217 48.9914 137.771 50.8328C140.325 52.6743 142.235 55.2727 143.23 58.26L172.36 145.75C173.111 148.005 173.315 150.405 172.957 152.754C172.598 155.104 171.686 157.334 170.297 159.262C168.907 161.189 167.079 162.759 164.964 163.842C162.849 164.925 160.506 165.49 158.13 165.49H158.08Z" fill="white"/>
</svg>
